<svg version="1" xmlns="http://www.w3.org/2000/svg" width="133.333" height="133.333" viewBox="0 0 100.000000 100.000000"><path d="M37.9 2.4c-8.6 3.5-16.6 10.5-17.3 15-.1.8-.8 2.1-1.5 2.9-2.5 3.1-4.1 11.8-3 16.6 1.4 6.1 2.3 7 7 6.6 3-.3 3.9 0 3.9 1.2 0 .8 1.3 2 3 2.6 3.4 1.3 3.3 1.1 2 9.2-.6 3.3-1.1 9.5-1.1 13.7 0 7.4-.2 7.9-3.6 12-4.8 5.9-6.1 6.5-6.9 3.3-.3-1.4-.4-2.9 0-3.2.3-.3.2-1.1-.4-1.8-1-1.2-.2-5.5 1.1-5.5 1.2 0 5.9-8.4 5.9-10.6 0-1.1-.6-2.9-1.4-4-1.4-1.8-1.6-1.8-4.8-.1-1.9 1-4.1 3.2-5 5-4.7 9.4-5.1 15.1-1.8 21.7 1.6 3.1 2.7 4 5.6 4.6 4.7.9 7.4-.7 9.9-5.8l2-4.1.6 3.8c1.5 9 9.7 9.7 15.5 1.3l2.9-4.1 1 2.6c3.6 8.8 10.3 8.2 14.2-1.5 1.2-2.9 2.4-6.9 2.7-8.8.5-2.7 1.5-4.1 3.9-5.4 2.8-1.7 7.7-6.2 7.7-7.3 0-.6-4.3 1.9-7.8 4.5-1.8 1.4-3.4 2.3-3.5 2.1-.1-.2-.7-1.3-1.3-2.4-.7-1.3-2.2-2-4.5-2.1-1.9-.1-4.6-.4-6-.8-2.9-.8-4.2 1.2-5.5 8.1-.7 4.4-5 11.6-9.4 15.8-2.5 2.4-3.3 2.7-4 1.5-2.3-3.7.7-13.2 5.9-19 4.1-4.4 3.7-6.4-1.2-6.8-3.2-.3-3.9 0-4.4 1.7-.3 1.2-.9 2.1-1.3 2.1-.5 0-1.1.8-1.3 1.7-.9 3.6-.6-4.4.4-8.7 1.6-7.3 1.5-7.2 5.4-4.9 7.2 4.3 18.9.6 22.1-6.9.1-.2 1.4-.5 3-.8 7-1.2 14.3-9.9 15-17.7.2-2.3.6-5.2.9-6.5.3-1.4.1-2.2-.7-2.2-.7 0-2.1-1.8-3.1-4-1.3-2.9-2.6-4-4.8-4.5-1.8-.4-3.5-1.6-4.1-3-.6-1.3-2.5-3.1-4.4-4.1-1.8-1-3.1-2.1-2.8-2.5.9-1.5-2-2.2-10.5-2.5-7.2-.3-9.5 0-14.2 2zm8.7 5.8c.3.5 1.2.4 2-.3.9-.7 1.4-.7 1.4-.1 0 .5 1.7 1.4 3.8 2l3.7 1-4 .1c-2.2.1-5.4.5-7.2 1-2.4.7-3.5.6-4.4-.5-1.4-1.7-3.3-1.7-8.3.1-3.4 1.2-3.7 1.2-2.4-.1.8-.8 3.6-2.3 6.3-3.3 4.7-1.8 8-1.8 9.1.1zm2.4 6.4c-2.5 1.4-5.6 3.6-7 4.8-1.8 1.7-3.6 2.3-6.7 2.2-2.3 0-4.4-.4-4.7-.7-1.5-1.4 15.8-8.7 20.9-8.8 1.3-.1.4.8-2.5 2.5zm27.9 2c4.2 5.3 1.9 13.4-4.9 17.5-7.5 4.6-21.1 6.3-24.9 3L45 35.3l5.7-2.2C59.8 29.7 64 25.2 64 19c0-3 .2-3.2 2.8-2.5 5.4 1.3 7.5 7.4 4.8 13.8-.6 1.3-.5 1.6.7 1.2 3.6-1.4 5-11.2 2.1-15.3-2.2-3.1 0-2.8 2.5.4zM61 15.5c0 .6-3 1.8-7 2.9-1.9.5-1.6.2 1-1.3 3.4-2 6-2.6 6-1.6zm2 4.2c-.1 4.7-5.1 9.3-13.9 12.7-4.3 1.6-7 1.4-4.1-.4 1.3-.8 1.3-1.1-.1-2.2-1.5-1.1-1.5-1.7-.3-4.5s2.3-3.5 9.1-5.6c9.9-3.2 9.3-3.2 9.3 0zm-25.1 7.6c-.1 2.3.2 5.2.6 6.4.7 2.2.5 2.3-3.6 2.3-5.8 0-7.2-1-6.3-4.3.4-1.6.2-2.7-.4-2.7-.6 0-1.2 1-1.4 2.2-.4 3.1-2.6 3.4-3.4.4-.7-2.9.8-8.1 2.4-8.1.5 0 1.3-.2 1.5-.5.3-.3 2.8-.3 5.6-.2l5.1.4-.1 4.1zm5.8 14.6l2.3 2.9-3.1.4c-3.5.5-4.2-.2-3.3-3.7.8-3.1 1.3-3.1 4.1.4zm3.8-1.9c.3.5.2 1-.4 1-.5 0-1.3-.5-1.6-1-.3-.6-.2-1 .4-1 .5 0 1.3.4 1.6 1zM22 69c-1.6 4-4.3 4.9-3.4 1.2.4-1.5 1.4-4.1 2.3-5.7 1.5-2.9 1.6-2.9 1.9-.7.2 1.3-.2 3.7-.8 5.2zm44.4-.5c.4 1.1-.3 1.9-2.1 2.6-3.8 1.4-5.7.5-4.3-2.1 1.3-2.4 5.5-2.7 6.4-.5zm-.3 7.3c-1.2 4.2-4.2 9.5-6 10.9-2.1 1.5-3.1 0-3.1-4.7 0-6.1.9-7.7 4.2-7.8 1.6 0 3.3-.3 3.6-.6 1.4-1.4 2-.4 1.3 2.2z"/><path d="M55.2 23.2c-4.8 3-3.2 3.3 1.9.3 2.4-1.3 3.7-2.4 2.9-2.4-.8 0-3 1-4.8 2.1zM81.6 3.1c-1.1 1.7-1.2 2.5-.3 4 .6 1 1.7 2.1 2.3 2.3C85 9.9 89 7.3 89 5.9c0-.5-.9 0-2 1.1-2 2-4.7 1.9-3.4-.1.3-.5 1-.7 1.5-.4.5.4.9.1.9-.4 0-.6-.7-1.1-1.5-1.1S83 5.5 83 6.1c0 .5-.4.8-1 .4-1.5-.9-.1-3.3 1.8-3 .9.1 1.1 0 .3-.2-1.2-.4-1.2-.6 0-1.4.9-.6 1-.9.2-.9-.6 0-1.9 1-2.7 2.1zM86 1.4c0 .2.8 1 1.8 1.7 1.5 1.3 1.6 1.2.3-.4S86 .6 86 1.4zM13.3 96.9c.1 2.1 2.2 3.5 3.7 2.6 1.6-1 .3-4-1.8-4.3-1.6-.2-2 .2-1.9 1.7zM24.3 97.4c.7 1.3 1.5 2.2 2 1.9.5-.3.6-.8.3-1.1-.3-.3-.1-1.1.5-1.9.9-1 .6-1.3-1.4-1.3-2.3 0-2.4.2-1.4 2.4zM34 96.9c-1.3 2.6-1.4 2.6 1.5 2.6 2.6 0 2.9-.4 1.9-2.9-.8-2.1-2.1-2-3.4.3zM44.7 97c.8 3.1 2 3.3 2.5.5.4-1.9.1-2.5-1.2-2.5s-1.7.6-1.3 2zM54.2 97.2c.2 1.5 1 2.3 2.3 2.3 1.3 0 2.1-.8 2.3-2.3.4-2.6-1.4-3-2.1-.5-.4 1.7-.5 1.7-.6 0 0-.9-.6-1.7-1.2-1.7s-.9 1-.7 2.2zM65 96.9c0 2.6 1.7 3.6 3.5 2.1s.8-4-1.6-4c-1.2 0-1.9.7-1.9 1.9z"/></svg>